<svg xmlns="http://www.w3.org/2000/svg" preserveAspectRatio="xMidYMid meet" viewBox="0 0 2048 2048" style="width:100%;height:100%;max-width:100%;max-height:100%;object-fit:contain;" id="svg" version="1.1" width="2048" height="2048"><path d="M201.277 260.229 C 201.772 355.562,202.157 362.278,209.487 403.422 C 218.056 451.512,230.647 492.581,249.826 535.000 C 271.998 584.037,298.430 626.527,332.251 667.500 C 344.942 682.875,376.083 715.171,391.093 728.525 C 394.169 731.261,398.219 734.862,400.093 736.527 C 405.609 741.427,428.839 760.000,437.500 766.435 C 457.951 781.631,490.210 801.599,514.500 814.098 C 576.398 845.950,638.833 865.563,705.092 873.971 C 739.356 878.319,762.747 878.990,880.250 878.995 L 991.000 879.000 991.000 1334.955 L 991.000 1790.909 994.250 1791.488 C 996.038 1791.806,1021.350 1791.847,1050.500 1791.579 C 1079.650 1791.311,1111.487 1791.071,1121.250 1791.046 L 1139.000 1791.000 1139.000 1335.087 L 1139.000 879.174 1213.250 878.717 C 1288.132 878.257,1299.935 877.778,1330.500 873.961 C 1389.915 866.542,1448.989 847.471,1508.609 816.461 C 1527.387 806.695,1536.312 801.326,1555.500 788.253 C 1583.715 769.030,1601.051 755.100,1624.881 732.500 C 1665.828 693.667,1697.267 652.512,1724.614 601.943 C 1757.204 541.678,1777.591 473.630,1785.118 400.000 C 1785.907 392.280,1786.431 353.399,1786.711 281.722 L 1787.130 174.944 1584.815 175.279 C 1384.140 175.611,1382.362 175.631,1365.500 177.783 C 1332.036 182.052,1313.469 185.560,1284.500 193.086 C 1227.086 208.002,1173.572 230.231,1126.500 258.717 C 1104.514 272.023,1072.557 294.474,1061.360 304.481 C 1060.733 305.042,1056.785 308.393,1052.587 311.929 C 1048.388 315.466,1045.076 318.679,1045.226 319.070 C 1045.377 319.462,1052.250 326.763,1060.500 335.294 C 1080.574 356.053,1085.445 361.588,1099.280 379.365 C 1113.779 397.994,1122.335 410.242,1129.649 422.838 C 1132.734 428.152,1135.891 433.520,1136.663 434.766 C 1138.050 437.005,1138.237 436.887,1152.442 424.766 C 1173.013 407.213,1172.123 407.901,1188.000 397.314 C 1209.504 382.975,1214.673 379.916,1234.500 369.792 C 1251.207 361.262,1279.169 349.934,1296.000 344.876 C 1312.364 339.959,1338.926 333.661,1352.549 331.468 C 1381.940 326.736,1383.822 326.675,1513.912 326.280 C 1610.186 325.987,1637.489 326.173,1638.076 327.123 C 1638.916 328.482,1638.562 360.539,1637.553 374.500 C 1634.471 417.161,1624.071 460.557,1607.477 500.000 C 1604.353 507.425,1600.206 516.425,1598.261 520.000 C 1581.641 550.549,1575.501 560.574,1563.261 577.146 C 1553.583 590.251,1545.940 599.035,1530.035 615.333 C 1501.668 644.403,1471.438 666.722,1433.850 686.349 C 1386.327 711.163,1337.951 724.753,1285.500 728.024 C 1275.545 728.645,1241.770 728.963,1204.000 728.792 L 1139.500 728.500 1138.893 696.500 C 1138.559 678.900,1137.748 660.225,1137.091 655.000 C 1131.873 613.515,1128.019 591.102,1122.390 569.500 C 1120.051 560.525,1112.291 535.468,1109.382 527.500 C 1105.773 517.612,1100.944 505.032,1099.401 501.500 C 1098.681 499.850,1097.148 496.064,1095.996 493.087 C 1086.542 468.661,1057.252 417.490,1036.585 389.291 C 1034.888 386.976,1032.375 383.448,1031.000 381.451 C 1019.330 364.501,979.792 322.417,957.500 303.217 C 919.802 270.749,868.542 238.314,824.000 218.745 C 784.488 201.386,741.900 188.532,702.138 181.964 C 661.028 175.174,680.628 175.654,429.168 175.289 L 200.836 174.958 201.277 260.229 M667.965 328.817 C 691.194 332.233,717.466 338.645,738.500 346.032 C 750.400 350.212,774.645 360.841,783.888 365.931 C 787.952 368.169,791.424 370.000,791.603 370.000 C 792.392 370.000,811.012 381.638,822.225 389.139 C 853.933 410.352,886.348 440.191,907.651 467.779 C 923.801 488.694,930.876 499.070,939.779 514.904 C 962.711 555.685,977.413 596.816,985.391 642.510 C 989.096 663.731,990.338 679.154,990.423 705.000 L 990.500 728.500 872.500 728.500 C 782.706 728.500,751.512 728.189,742.000 727.199 C 683.615 721.122,640.458 708.667,589.000 683.043 C 566.902 672.039,562.999 669.817,545.231 658.116 C 506.634 632.699,473.716 603.327,445.916 569.500 C 422.154 540.587,399.058 502.792,386.029 471.500 C 383.739 466.000,381.181 459.998,380.344 458.163 C 378.016 453.053,367.402 420.511,365.125 411.500 C 359.717 390.100,355.074 360.148,353.379 335.719 L 352.700 325.938 502.600 326.240 L 652.500 326.542 667.965 328.817 " stroke="none" fill="white" fill-rule="evenodd"/></svg>