<svg xmlns="http://www.w3.org/2000/svg" xmlns:xlink="http://www.w3.org/1999/xlink" width="2000" zoomAndPan="magnify" viewBox="0 0 1500 1499.999933" height="2000" preserveAspectRatio="xMidYMid meet" version="1.0"><path fill="#ffffff" d="M 49.234375 524.195312 C 49.234375 524.195312 198.285156 338.4375 407.402344 270.585938 C 473.027344 249.453125 604.28125 221.644531 749.996094 222.757812 C 960.226562 222.757812 1077.019531 253.902344 1194.925781 272.8125 C 1298.371094 286.160156 1450.757812 293.945312 1452.984375 293.945312 C 1440.746094 311.742188 1272.789062 516.410156 1058.109375 586.484375 C 947.988281 623.191406 864.566406 630.980469 760.007812 629.867188 C 606.507812 629.867188 530.871094 610.957031 431.875 594.273438 C 272.8125 566.464844 49.234375 531.980469 49.234375 531.980469 Z M 49.234375 524.195312 " fill-opacity="1" fill-rule="nonzero"/><path fill="#ffffff" d="M 49.234375 527.53125 C 49.234375 527.53125 206.074219 456.34375 332.875 434.097656 C 461.90625 409.625 580.925781 418.527344 771.132812 425.199219 C 826.746094 427.425781 892.375 431.875 946.878906 428.535156 C 1038.085938 422.976562 1107.050781 410.738281 1183.800781 391.828125 C 1295.035156 364.023438 1452.984375 296.171875 1452.984375 295.058594 C 1437.410156 319.527344 1290.585938 484.152344 1094.816406 564.238281 C 989.144531 607.621094 895.710938 629.867188 760.007812 629.867188 C 610.957031 629.867188 537.542969 613.179688 431.875 594.273438 C 277.261719 567.578125 49.234375 531.980469 49.234375 531.980469 Z M 49.234375 527.53125 " fill-opacity="1" fill-rule="nonzero"/><path fill="#ffffff" d="M 229.429688 1277.238281 C 329.539062 1153.769531 374.03125 996.933594 432.984375 903.496094 C 486.378906 823.410156 576.476562 751.109375 698.832031 714.402344 C 805.613281 683.257812 912.394531 666.574219 1030.300781 658.785156 C 1013.617188 725.527344 960.226562 917.957031 840.09375 1043.648438 C 751.109375 1138.195312 656.5625 1192.699219 541.992188 1228.292969 C 419.636719 1262.777344 300.621094 1276.125 229.429688 1277.238281 Z M 229.429688 1277.238281 " fill-opacity="1" fill-rule="nonzero"/><path fill="#ffffff" d="M 229.429688 1276.125 C 351.785156 1210.496094 434.097656 1164.890625 515.296875 1079.242188 C 580.925781 1010.28125 630.980469 943.539062 682.144531 892.375 C 777.804688 797.828125 886.8125 737.761719 1030.300781 658.785156 C 1006.941406 661.011719 945.765625 663.234375 884.585938 671.023438 C 777.804688 684.371094 675.472656 706.617188 598.722656 747.773438 C 528.644531 784.480469 476.367188 831.195312 436.324219 885.699219 C 364.023438 988.035156 311.742188 1149.320312 229.429688 1276.125 Z M 229.429688 1276.125 " fill-opacity="1" fill-rule="nonzero"/></svg>